<svg xmlns="http://www.w3.org/2000/svg" width="50" height="50" viewBox="0 0 256 256">
  <defs>
    <linearGradient id="color-gradient" x1="-.828%" x2="57.636%" y1="7.652%" y2="78.411%">
      <stop offset="0%" stop-color="#0066CC" />
      <stop offset="100%" stop-color="#000" />
    </linearGradient>
    <linearGradient id="grayscale-gradient" x1="0%" y1="0%" x2="100%" y2="100%">
      <stop offset="0%" stop-color="#333" />
      <stop offset="100%" stop-color="#CCC" />
    </linearGradient>
  </defs>
  <rect x="8" y="8" width="240" height="240" rx="50" fill="url(#color-gradient)" />
  <svg x="38" y="38" width="180" height="180" viewBox="0 0 512 512" fill="url(#grayscale-gradient)">
    <path d="M64 32C28.7 32 0 60.7 0 96v64c0 35.3 28.7 64 64 64H448c35.3 0 64-28.7 64-64V96c0-35.3-28.7-64-64-64H64zm280 72a24 24 0 1 1 0 48 24 24 0 1 1 0-48zm48 24a24 24 0 1 1 48 0 24 24 0 1 1 -48 0zM64 288c-35.3 0-64 28.7-64 64v64c0 35.3 28.7 64 64 64H448c35.3 0 64-28.7 64-64V352c0-35.3-28.7-64-64-64H64zm280 72a24 24 0 1 1 0 48 24 24 0 1 1 0-48zm56 24a24 24 0 1 1 48 0 24 24 0 1 1 -48 0z" />
  </svg>
</svg>
